<?xml version="1.0" encoding="UTF-8"?>
<svg id="Layer_2" xmlns="http://www.w3.org/2000/svg" viewBox="0 0 151.49 45.4">
  <defs>
    <style>
      .cls-1 {
        fill: #002e6d;
      }
    </style>
  </defs>
  <g id="Layer_1-2" data-name="Layer_1">
    <g>
      <path class="cls-1" d="M109.12,6.15l-13.03,24.8c-.28.54-1.09.54-1.37,0l-13.04-24.8c-.13-.25-.39-.4-.67-.4h-6.3c-.43,0-.7.46-.5.83l20.53,38.42c.29.53,1.05.53,1.33,0L116.6,6.58c.2-.38-.07-.83-.5-.83h-6.31c-.28,0-.54.16-.67.4"/>
      <path class="cls-1" d="M116.52,39.25l13.03-24.8c.28-.54,1.09-.54,1.37,0l13.04,24.8c.13.25.39.4.67.4h6.3c.43,0,.7-.46.5-.83L130.9.4c-.29-.53-1.05-.53-1.33,0l-20.53,38.42c-.2.38.07.83.5.83h6.31c.28,0,.54-.16.67-.4"/>
      <path class="cls-1" d="M19.05,39.65H7.31c-.42,0-.76-.34-.76-.75v-10.53c0-.42.34-.76.76-.76h11.75c5.6,0,8.1,1.59,8.1,6.02s-2.45,6.02-8.1,6.02M7.31,11.48h11.58c4.27,0,6.44,1.83,6.44,5.19s-2.17,5.19-6.44,5.19H7.31c-.42,0-.75-.34-.75-.76v-8.87c0-.42.34-.75.75-.75M27.48,24.05c2.72-1.36,4.42-4.31,4.42-7.93,0-6.17-4.81-10.37-11.61-10.37H.76c-.42,0-.76.34-.76.75v38.14c0,.42.34.76.76.76h18.67c9.35,0,14.28-4.02,14.28-11.89s-6.22-9.46-6.22-9.46"/>
      <path class="cls-1" d="M59.12,39.65h-11.75c-.42,0-.76-.34-.76-.75v-10.53c0-.42.34-.76.76-.76h11.75c5.6,0,8.1,1.59,8.1,6.02s-2.45,6.02-8.1,6.02M47.38,11.48h11.58c4.27,0,6.44,1.83,6.44,5.19s-2.17,5.19-6.44,5.19h-11.58c-.42,0-.76-.34-.76-.76v-8.87c0-.42.34-.75.76-.75M67.55,24.05c2.72-1.36,4.42-4.31,4.42-7.93,0-6.17-4.81-10.37-11.61-10.37h-19.53c-.42,0-.76.34-.76.75v38.14c0,.42.34.76.76.76h18.67c9.35,0,14.27-4.02,14.27-11.89s-6.22-9.46-6.22-9.46"/>
    </g>
  </g>
</svg>