<svg xmlns="http://www.w3.org/2000/svg" viewBox="28 44 125 36">
<ns0:g>
        <ns0:polygon points="100 60.6 108.2 60.6 108.2 62.6 95.1 62.6 95.1 52.8 108.2 52.8 108.2 54.7 100 54.7 100 56.8 107.3 56.8 107.3 58.3 100 58.3 100 60.6" />
        <ns0:path d="M81.5,59.2v-6.4h2.9v9.9h-2.8s-.1,0-.3-.1c-2.3-2.1-7-6.3-7-6.3v6.4h-4.7v-9.9h4.6c.1,0,.2,0,.3.1,2.3,2.1,7,6.3,7,6.3" />
        <ns0:path d="M67.7,62.7h-5s-.2,0-.3-.1c-.2-.4-.4-.7-.6-1.1,0-.1-.1-.1-.3-.1-2,0-4.1,0-6.1,0-.1,0-.2,0-.2.1-.2.4-.4.7-.6,1.1,0,.1-.2.1-.2.1h-3.3s5.6-9.7,5.6-9.7c0,0,.1-.2.3-.2,1,0,3.8,0,4.9,0,.1,0,.2,0,.3.2,1.9,3.2,5.6,9.7,5.6,9.7M58.5,55.7l-1.8,3.2h3.6l-1.8-3.2Z" />
        <ns0:polygon points="111.1 62.6 111.1 52.8 115.8 52.8 115.8 60.6 122.7 60.6 122.7 62.6 111.1 62.6" />
        <ns0:rect x="87.4" y="52.8" width="4.7" height="9.9" />
        <ns0:path d="M50.4,56.5c-.2-1-.7-1.8-1.4-2.3-.6-.5-1.3-.8-2.2-1-1-.3-2-.4-3.4-.4h-8.7v10s8.7,0,8.7,0c1.4,0,2.5-.1,3.4-.4.9-.2,1.6-.6,2.2-1,.7-.6,1.2-1.4,1.4-2.3,0-.3.3-1.5,0-2.5M46.5,59.1c-.3.4-.8.5-1.1.6-.4.1-.9.2-1.4.2h-4.6v-4.4h4.6c.5,0,1,0,1.4.2.3,0,.7.2,1.1.6.3.3.5.9.5,1.4s-.2,1.1-.5,1.4" />
        <ns0:path d="M137.4,71.8v-6.4h2.9v9.9h-2.8s-.1,0-.3-.1c-2.3-2.1-7-6.3-7-6.3v6.4h-4.7v-9.9h4.6c.1,0,.2,0,.3.1,2.3,2.1,7,6.3,7,6.3" />
        <ns0:path d="M84,75.3h-5s-.2,0-.3-.1c-.2-.4-.4-.7-.6-1.1,0-.1-.1-.1-.3-.1-2,0-4.1,0-6.1,0-.1,0-.2,0-.2.1-.2.4-.4.7-.6,1.1,0,.1-.2.1-.2.1h-3.3s5.6-9.7,5.6-9.7c0,0,.1-.2.3-.2,1,0,3.8,0,4.9,0,.1,0,.2,0,.3.2,1.9,3.2,5.6,9.7,5.6,9.7M74.8,68.3l-1.8,3.2h3.6l-1.8-3.2Z" />
        <ns0:rect x="118" y="65.4" width="4.7" height="9.9" />
        <ns0:path d="M85.6,74.8l.4-2.3s0,0,0,0c.2,0,.3,0,.5.1h.4c.7.2,1.4.3,2.1.4,1,.1,2,.2,3,.2s.5,0,.7,0h0c.3,0,.7,0,1-.1.1,0,.2-.1.3-.2.1-.1.2-.3.2-.5,0-.2-.1-.4-.3-.5-.3-.2-.6-.3-.8-.3-.7,0-1.2-.2-1.8-.2-1.2-.1-2.2-.3-3.3-.7-.6-.2-1.1-.4-1.5-.8-.6-.5-.8-1.1-.7-2,0-.8.5-1.5,1.2-1.9.5-.3,1-.5,1.7-.6,5.3-.7,10.6.3,10.6.3h0s-.3,2.2-.3,2.2c0,0-.2,0-.3,0-.2,0-.4,0-.6,0-.5,0-1-.1-1.6-.2-.8,0-1.6-.2-2.3-.2-.4,0-.7,0-1,0-.5,0-1,0-1.4,0-.2,0-.3,0-.5.1-.2,0-.3.3-.3.5,0,.2,0,.4.3.5.3.2.6.2.8.3.5,0,5.4.5,6.7,1.5.5.4.8.9.9,1.7,0,.9-.3,1.7-1,2.2-.4.3-.9.6-1.7.8-3,.6-7,.6-11.5-.2" />
        <ns0:path d="M101.8,74.8l.4-2.3s0,0,0,0c.2,0,.3,0,.5.1h.5c.7.2,1.4.3,2.1.4,1,.1,2,.2,3,.2s.5,0,.7,0h0c.3,0,.7,0,1-.1.1,0,.2-.1.3-.2.1-.1.2-.3.2-.5,0-.2-.1-.4-.3-.5-.3-.2-.6-.3-.8-.3-.7,0-1.2-.2-1.8-.2-1.2-.1-2.2-.3-3.3-.7-.6-.2-1.1-.4-1.5-.8-.6-.5-.8-1.1-.7-2,0-.8.5-1.5,1.2-1.9.5-.3,1-.5,1.7-.6,5.3-.7,10.6.3,10.6.3h0s-.3,2.2-.3,2.2c0,0-.2,0-.3,0-.2,0-.4,0-.6,0-.5,0-1-.1-1.6-.2-.8,0-1.6-.2-2.3-.2-.4,0-.7,0-1,0-.5,0-1,0-1.4,0-.2,0-.3,0-.5.1-.2,0-.3.3-.3.5,0,.2,0,.4.3.5.3.2.6.2.8.3.5,0,5.4.5,6.7,1.5.5.4.8.9.9,1.7,0,.9-.3,1.7-1,2.2-.4.3-.9.6-1.7.8-3,.6-7,.6-11.5-.2" />
        <ns0:path d="M57.1,68.6c.6-.3,1.3-.4,1.9-.4.6,0,1.3,0,2,0s1,0,1.6,0c1,0,2.1.1,3.1.3v-2.9h-.1c-.6,0-1.3-.2-1.9-.2-6.8-.7-10,1-10,1-1.4.8-2.4,2.3-2.4,4s1,3.3,2.5,4h0c1.4.8,4,1.2,5.9,1.2.1,0,.3,0,.4,0,1.1,0,2.2,0,3.6-.2.6,0,1.4-.1,2.1-.3v-2.9c-.2,0-.5,0-.7.1-.8.1-1.7.2-2.6.2-.4,0-.9,0-1.5,0-1,0-1.8,0-2.5-.2-.4,0-.9-.2-1.4-.4-.4-.2-.7-.6-.9-1.1-.1-.5,0-1,.1-1.4.3-.5.7-.7,1-.8" />
      </ns0:g>
      
</svg>