<?xml version="1.0" encoding="UTF-8"?>
<svg id="Layer_2" xmlns="http://www.w3.org/2000/svg" viewBox="0 0 181.46 119.71">
  <defs>
    <style>
      .cls-1 {
        fill: #cc071e;
      }
    </style>
  </defs>
  <g id="Layer_1-2" data-name="Layer_1">
    <g>
      <path class="cls-1" d="M127.52,3.63c6.59-3.24,9.86-2.81,9.93.47.09,4.26-.54,9.93-1,14.03-2.45,22.29-6.53,40.51-6.84,63.39,10.77-27.87,19.79-47.24,31.42-71.1,3.69-7.6,6.05-6.18,9.08-7.53,11.81-5.26,12.25-2.04,10.71,4.39-5.73,23.82-20.39,98.8-22.63,110.35-.64,3.34-4.28,1.92-5.21.62-4.2-5.81-8.95-5.91-8.42-9.77,2.64-19.25,12.13-67.55,14.6-78.93-12.61,25.86-25.69,58.18-32.41,76.5-1.42,3.89-4.01,3.61-5.62.76-2.27-4-6.68-6.04-7.41-10.77-2.3-15.03,2.64-43.67,3.32-61.79-6.87,19.8-18.4,58.23-23.45,75.59-2.08,7.18-9.02,6.01-7.18-.99,7.67-29.14,24.21-80.68,31.36-99.21,1.68-4.37,6.09-4.22,9.76-6.02M85.66.06c-2.23-.54-8.69,2.94-12.66,3.63-1.26.22-2.46,1.55-2.89,2.5-6.36,14.6-12.05,28.52-16.99,41.21-6.31,1.08-13.7,2.5-21.96,4.35,5.92-15.18,11.89-30.15,17.72-44.55,2.87-7.09-4.69-7.76-7.62-.59-3.81,9.33-10.94,26.81-18.84,47.19-6.16,1.51-12.29,3.15-18.38,4.91-4.67,1.35-4.86,2.59-2.84,5.4,1.11,1.56,3.41,1.4,4.47,2.51,2.72,2.88,4.38,6.33,9.26,6.85-4.35,11.64-8.7,23.64-12.64,35.19-2.48,7.25,4.57,8.74,7.28,1.06,4.36-12.37,8.96-24.89,13.7-37.38,3.94-.92,13.48-2.97,22.28-4.88-6.99,19.15-11.59,33.69-13.33,40.77-.32,1.36.22,2.12.51,2.67,2.36,3.43,4.6,3.57,7.63,7.82.82,1.16,3.57,1.78,4.51-1.07,6.47-19.56,13.14-37.9,19.35-54.35,2.58-.56,7.22-1.68,10.06-5.92,5.05-7.53,6.5-6,7.72-8.29,1.52-2.87.51-5.57-4.88-4.9,0,0-2.04.14-5.8.57,5.98-15.39,11.21-28.44,14.97-38.38,1.29-3.37,1.45-5.83-.64-6.33"/>
      <path class="cls-1" d="M76.85,99.85c1.39,3.52,5.74,2.45,4.09-1.79-1.68-4.32-5.87-17.34-6.97-21.53-1.49-5.65,4.98-4.11,1.7-.41-2.81,3.18-4.69,4.45-9.89,10.49-5.02,5.83-3.66,13.4,1.71,15.07,6.06,1.89,11.41-4.8,14.72-9.7,3.21-4.75.1-7.53-3.13-4.73-2.08,1.8-4.48,4.58-6.91,6.07-1.98,1.2-3.53-.09-.89-3.72,3.06-4.2,6.49-7.72,9.04-11.69,5.2-8.09-5.08-12.76-9.51-7.5-2.37,2.8-1.77,5.55-1.13,7.91,1.04,3.78,4.91,15.85,7.18,21.53"/>
    </g>
  </g>
</svg>