<?xml version="1.0" encoding="UTF-8"?>
<svg id="Layer_2" xmlns="http://www.w3.org/2000/svg" viewBox="0 0 212.77 87.22">
  <defs>
    <style>
      .cls-1 {
        fill: #28a6de;
      }

      .cls-2 {
        fill: #231f20;
      }
    </style>
  </defs>
  <g id="Layer_1-2" data-name="Layer_1">
    <g>
      <g>
        <path class="cls-2" d="M.96,50h2.59v15.96h8.15v2.39H.96v-18.35Z"/>
        <path class="cls-2" d="M19.74,49.9h1.82l8.11,18.46h-2.65l-2.41-5.44h-7.72l-2.26,5.44h-2.66l7.77-18.46ZM23.55,60.58l-2.92-6.65-2.71,6.65h5.63Z"/>
        <path class="cls-2" d="M39.11,68.35v-18.35h4.53c1.83,0,3.28.46,4.36,1.38,1.07.92,1.61,2.16,1.61,3.73,0,1.07-.26,1.99-.79,2.77-.53.78-1.28,1.36-2.27,1.75.58.39,1.14.91,1.7,1.58.55.67,1.33,1.83,2.33,3.48.63,1.04,1.14,1.83,1.51,2.35l.96,1.31h-3.08l-.79-1.21s-.08-.12-.16-.22l-.5-.72-.8-1.34-.87-1.43c-.53-.75-1.02-1.35-1.47-1.8-.45-.45-.85-.77-1.21-.96-.36-.2-.96-.3-1.81-.3h-.67v7.99h-2.59ZM42.47,52.23h-.78v5.79h.98c1.31,0,2.21-.11,2.7-.34.49-.23.87-.57,1.14-1.03.27-.46.41-.98.41-1.57s-.15-1.1-.45-1.57c-.3-.47-.73-.8-1.28-.99-.55-.19-1.46-.29-2.73-.29Z"/>
        <path class="cls-2" d="M62.33,49.74c2.8,0,5.12.9,6.98,2.69,1.86,1.8,2.79,4.05,2.79,6.75s-.94,4.95-2.81,6.72c-1.88,1.77-4.24,2.66-7.1,2.66s-5-.89-6.81-2.66c-1.82-1.77-2.72-4-2.72-6.67s.91-5.01,2.74-6.8c1.83-1.8,4.14-2.69,6.94-2.69ZM62.44,52.23c-2.07,0-3.77.66-5.1,1.97-1.33,1.31-2,2.99-2,5.03s.67,3.63,2.01,4.94c1.34,1.31,3.01,1.97,5.02,1.97s3.7-.67,5.05-2.01c1.35-1.34,2.03-3.01,2.03-5.01s-.68-3.58-2.03-4.91c-1.35-1.33-3.01-1.99-4.97-1.99Z"/>
        <path class="cls-2" d="M90.88,64.1v2.89c-1.9,1.05-4.09,1.58-6.58,1.58-2.02,0-3.73-.41-5.14-1.23-1.41-.82-2.52-1.96-3.34-3.4-.82-1.45-1.23-3.01-1.23-4.69,0-2.67.94-4.92,2.82-6.74,1.88-1.82,4.19-2.73,6.95-2.73,1.9,0,4.01.5,6.33,1.51v2.82c-2.12-1.23-4.18-1.84-6.2-1.84s-3.79.66-5.16,1.99c-1.37,1.33-2.05,2.99-2.05,4.98s.67,3.67,2.02,4.97c1.35,1.3,3.07,1.94,5.17,1.94s4.33-.68,6.42-2.05Z"/>
        <path class="cls-2" d="M106.83,50h2.59v18.35h-2.59v-7.99h-10.17v7.99h-2.59v-18.35h2.59v7.93h10.17v-7.93Z"/>
        <path class="cls-2" d="M113.4,50h10.26v2.34h-7.67v5.6h7.41v2.35h-7.41v5.7h7.91v2.34h-10.5v-18.33Z"/>
        <path class="cls-2" d="M125.73,61.11h6.45v2.56h-6.45v-2.56Z"/>
        <path class="cls-2" d="M135.1,68.35v-18.38h5.74c1.73,0,3.1.47,4.13,1.42,1.03.95,1.54,2.22,1.54,3.81,0,1.07-.26,2.01-.79,2.84-.53.82-1.25,1.42-2.16,1.79-.92.37-2.23.56-3.94.56h-1.92v7.96h-2.6ZM140.38,52.31h-2.68v5.74h2.84c1.05,0,1.86-.25,2.43-.76.57-.5.85-1.22.85-2.16,0-1.88-1.15-2.82-3.44-2.82Z"/>
        <path class="cls-2" d="M157.64,49.74c2.8,0,5.12.9,6.98,2.69,1.86,1.8,2.79,4.05,2.79,6.75s-.94,4.95-2.81,6.72c-1.88,1.77-4.24,2.66-7.1,2.66s-5-.89-6.81-2.66c-1.82-1.77-2.72-4-2.72-6.67s.92-5.01,2.74-6.8c1.83-1.8,4.14-2.69,6.94-2.69ZM157.74,52.23c-2.07,0-3.77.66-5.1,1.97-1.33,1.31-2,2.99-2,5.03s.67,3.63,2.01,4.94c1.34,1.31,3.01,1.97,5.02,1.97s3.7-.67,5.05-2.01c1.35-1.34,2.03-3.01,2.03-5.01s-.67-3.58-2.03-4.91c-1.35-1.33-3.01-1.99-4.97-1.99Z"/>
        <path class="cls-2" d="M175.08,60.66l-1.97-1.21c-1.23-.76-2.11-1.52-2.64-2.26-.52-.74-.78-1.59-.78-2.56,0-1.44.49-2.62,1.48-3.52.99-.9,2.27-1.35,3.85-1.35s2.9.43,4.16,1.29v2.98c-1.3-1.27-2.71-1.91-4.21-1.91-.85,0-1.54.2-2.08.6-.54.4-.82.91-.82,1.52,0,.55.2,1.06.6,1.54.4.48,1.04.98,1.93,1.51l1.98,1.19c2.21,1.34,3.31,3.04,3.31,5.11,0,1.47-.49,2.67-1.46,3.59-.97.92-2.23,1.38-3.79,1.38-1.79,0-3.41-.56-4.88-1.67v-3.34c1.4,1.8,3.02,2.7,4.86,2.7.81,0,1.49-.23,2.03-.69.54-.46.81-1.03.81-1.72,0-1.12-.79-2.18-2.38-3.18Z"/>
        <path class="cls-2" d="M188.52,49.9h1.82l8.11,18.46h-2.65l-2.41-5.44h-7.72l-2.26,5.44h-2.66l7.77-18.46ZM192.32,60.58l-2.92-6.65-2.71,6.65h5.63Z"/>
        <path class="cls-2" d="M208.4,50h3.14l-6.68,8.64v9.71h-2.65v-9.71l-6.68-8.64h3.13l4.84,6.33,4.91-6.33Z"/>
      </g>
      <g>
        <path class="cls-2" d="M0,74.74h1.34v9.03h4.21v1.35H0v-10.38Z"/>
        <path class="cls-2" d="M9.72,74.68h.94l4.2,10.44h-1.37l-1.25-3.08h-3.99l-1.17,3.08h-1.38l4.02-10.44ZM11.69,80.72l-1.51-3.76-1.4,3.76h2.91Z"/>
        <path class="cls-2" d="M19.05,85.12h-3.17v-10.38h2.45c.77,0,1.38.12,1.81.35.43.23.76.55.99.95.23.4.34.87.34,1.4,0,1.02-.48,1.75-1.43,2.19.68.14,1.23.46,1.63.94.4.48.61,1.06.61,1.72,0,.53-.12,1-.37,1.42-.25.42-.61.76-1.08,1.02-.48.26-1.07.39-1.79.39ZM18.37,76.06h-1.15v3.12h.89c.71,0,1.22-.15,1.52-.45.3-.3.45-.69.45-1.17,0-1-.57-1.49-1.72-1.49ZM18.48,80.51h-1.25v3.29h1.32c.73,0,1.23-.06,1.49-.19.26-.13.47-.32.63-.59.16-.27.24-.55.24-.86s-.08-.61-.25-.87c-.17-.26-.41-.46-.71-.59-.31-.13-.8-.19-1.46-.19Z"/>
        <path class="cls-2" d="M28.2,74.59c1.45,0,2.65.51,3.61,1.52.96,1.02,1.44,2.29,1.44,3.82s-.49,2.8-1.46,3.8c-.97,1-2.2,1.5-3.67,1.5s-2.59-.5-3.53-1.5c-.94-1-1.41-2.26-1.41-3.77s.47-2.83,1.42-3.85c.95-1.02,2.14-1.52,3.59-1.52ZM28.26,76c-1.07,0-1.95.37-2.64,1.11-.69.74-1.03,1.69-1.03,2.85s.35,2.05,1.04,2.79c.69.74,1.56,1.11,2.6,1.11s1.92-.38,2.61-1.14c.7-.76,1.05-1.7,1.05-2.83s-.35-2.03-1.05-2.78c-.7-.75-1.56-1.13-2.57-1.13Z"/>
        <path class="cls-2" d="M34.95,85.12v-10.38h2.35c.95,0,1.7.26,2.25.78.56.52.83,1.22.83,2.11,0,.6-.14,1.13-.41,1.57-.27.44-.66.77-1.17.99.3.22.59.52.88.89.29.38.69,1.03,1.21,1.97.33.59.59,1.03.78,1.33l.5.74h-1.59l-.41-.68s-.04-.07-.08-.13l-.26-.41-.41-.76-.45-.81c-.28-.43-.53-.77-.76-1.02-.23-.25-.44-.43-.62-.55-.19-.11-.5-.17-.94-.17h-.35v4.52h-1.34ZM36.69,76h-.4v3.28h.51c.68,0,1.14-.06,1.4-.19.25-.13.45-.32.59-.58.14-.26.21-.56.21-.89s-.08-.62-.23-.89c-.16-.27-.38-.45-.66-.56-.28-.11-.75-.16-1.41-.16Z"/>
        <path class="cls-2" d="M46.18,74.68h.94l4.2,10.44h-1.37l-1.25-3.08h-3.99l-1.17,3.08h-1.38l4.02-10.44ZM48.15,80.72l-1.51-3.76-1.4,3.76h2.91Z"/>
        <path class="cls-2" d="M50.18,74.72h7.82v1.32h-3.26v9.07h-1.35v-9.07h-3.21v-1.32Z"/>
        <path class="cls-2" d="M62.97,74.59c1.45,0,2.65.51,3.61,1.52.96,1.02,1.44,2.29,1.44,3.82s-.49,2.8-1.46,3.8c-.97,1-2.2,1.5-3.67,1.5s-2.59-.5-3.53-1.5c-.94-1-1.41-2.26-1.41-3.77s.47-2.83,1.42-3.85c.95-1.02,2.14-1.52,3.59-1.52ZM63.02,76c-1.07,0-1.95.37-2.64,1.11-.69.74-1.03,1.69-1.03,2.85s.35,2.05,1.04,2.79c.69.74,1.56,1.11,2.6,1.11s1.92-.38,2.61-1.14c.7-.76,1.05-1.7,1.05-2.83s-.35-2.03-1.05-2.78c-.7-.75-1.56-1.13-2.57-1.13Z"/>
        <path class="cls-2" d="M69.69,74.74h1.34v10.38h-1.34v-10.38Z"/>
        <path class="cls-2" d="M73.14,85.12v-10.38h2.35c.95,0,1.7.26,2.25.78.56.52.83,1.22.83,2.11,0,.6-.14,1.13-.41,1.57-.27.44-.66.77-1.17.99.3.22.59.52.88.89.29.38.69,1.03,1.21,1.97.33.59.59,1.03.78,1.33l.5.74h-1.59l-.41-.68s-.04-.07-.08-.13l-.26-.41-.41-.76-.45-.81c-.28-.43-.53-.77-.76-1.02-.23-.25-.44-.43-.62-.55-.19-.11-.5-.17-.94-.17h-.35v4.52h-1.34ZM74.89,76h-.4v3.28h.51c.68,0,1.14-.06,1.4-.19.25-.13.45-.32.59-.58.14-.26.21-.56.21-.89s-.08-.62-.23-.89c-.16-.27-.38-.45-.66-.56-.28-.11-.75-.16-1.41-.16Z"/>
        <path class="cls-2" d="M81.39,74.74h5.31v1.32h-3.97v3.17h3.83v1.33h-3.83v3.23h4.09v1.32h-5.43v-10.37Z"/>
        <path class="cls-2" d="M92.08,85.11v-10.37h3.16c1.27,0,2.28.21,3.02.64.74.42,1.33,1.05,1.77,1.87.44.82.66,1.72.66,2.69,0,.69-.12,1.36-.36,1.99-.24.63-.59,1.19-1.03,1.67-.46.5-.99.87-1.59,1.12-.35.15-.68.26-.97.31-.29.05-.86.08-1.69.08h-2.96ZM95.1,76.06h-1.68v7.72h1.72c.67,0,1.19-.05,1.56-.15.37-.1.68-.23.93-.39.25-.16.47-.35.68-.58.66-.74.99-1.68.99-2.82s-.34-2.02-1.02-2.73c-.25-.26-.54-.48-.86-.65-.32-.17-.63-.28-.92-.33-.29-.05-.76-.08-1.4-.08Z"/>
        <path class="cls-2" d="M102.36,74.74h5.31v1.32h-3.97v3.17h3.83v1.33h-3.83v3.23h4.09v1.32h-5.43v-10.37Z"/>
        <path class="cls-2" d="M109.26,85.12v-10.38h2.35c.95,0,1.7.26,2.26.78.56.52.83,1.22.83,2.11,0,.6-.14,1.13-.41,1.57-.27.44-.66.77-1.17.99.3.22.59.52.88.89.29.38.69,1.03,1.21,1.97.33.59.59,1.03.78,1.33l.5.74h-1.59l-.41-.68s-.04-.07-.08-.13l-.26-.41-.41-.76-.45-.81c-.28-.43-.53-.77-.76-1.02-.23-.25-.44-.43-.62-.55-.19-.11-.5-.17-.94-.17h-.35v4.52h-1.34ZM111,76h-.4v3.28h.51c.68,0,1.14-.06,1.4-.19.25-.13.45-.32.59-.58.14-.26.21-.56.21-.89s-.08-.62-.23-.89c-.16-.27-.38-.45-.66-.56-.28-.11-.75-.16-1.41-.16Z"/>
        <path class="cls-2" d="M124.96,74.74h1.25v10.38h-1.35v-8.08l-2.88,4.01h-.25l-2.91-4.01v8.08h-1.34v-10.38h1.27l3.11,4.26,3.09-4.26Z"/>
        <path class="cls-2" d="M131.22,74.68h.94l4.2,10.44h-1.37l-1.25-3.08h-3.99l-1.17,3.08h-1.38l4.02-10.44ZM133.19,80.72l-1.51-3.76-1.4,3.76h2.91Z"/>
        <path class="cls-2" d="M135.21,74.72h7.82v1.32h-3.26v9.07h-1.35v-9.07h-3.21v-1.32Z"/>
        <path class="cls-2" d="M148,74.59c1.45,0,2.65.51,3.61,1.52.96,1.02,1.44,2.29,1.44,3.82s-.49,2.8-1.46,3.8c-.97,1-2.2,1.5-3.67,1.5s-2.59-.5-3.53-1.5c-.94-1-1.41-2.26-1.41-3.77s.47-2.83,1.42-3.85c.95-1.02,2.14-1.52,3.59-1.52ZM148.05,76c-1.07,0-1.95.37-2.64,1.11-.69.74-1.03,1.69-1.03,2.85s.35,2.05,1.04,2.79c.69.74,1.56,1.11,2.6,1.11s1.92-.38,2.61-1.14c.7-.76,1.05-1.7,1.05-2.83s-.35-2.03-1.05-2.78c-.7-.75-1.56-1.13-2.57-1.13Z"/>
        <path class="cls-2" d="M154.7,74.74h1.34v9.03h4.22v1.35h-5.56v-10.38Z"/>
        <path class="cls-2" d="M166.03,74.59c1.45,0,2.65.51,3.61,1.52.96,1.02,1.44,2.29,1.44,3.82s-.49,2.8-1.46,3.8c-.97,1-2.2,1.5-3.67,1.5s-2.59-.5-3.53-1.5c-.94-1-1.41-2.26-1.41-3.77s.47-2.83,1.42-3.85c.95-1.02,2.14-1.52,3.59-1.52ZM166.08,76c-1.07,0-1.95.37-2.64,1.11-.69.74-1.03,1.69-1.03,2.85s.35,2.05,1.04,2.79c.69.74,1.56,1.11,2.6,1.11s1.92-.38,2.62-1.14c.7-.76,1.05-1.7,1.05-2.83s-.35-2.03-1.05-2.78c-.7-.75-1.56-1.13-2.57-1.13Z"/>
        <path class="cls-2" d="M177.79,80.01h3.14v4.4c-1.15.56-2.3.83-3.43.83-1.55,0-2.79-.5-3.72-1.5-.93-1-1.39-2.24-1.39-3.71,0-1.55.48-2.84,1.44-3.87.96-1.03,2.16-1.55,3.61-1.55.53,0,1.03.06,1.5.19.47.13,1.07.36,1.8.69v1.52c-1.12-.72-2.22-1.08-3.32-1.08-1.02,0-1.88.39-2.59,1.16-.7.77-1.05,1.72-1.05,2.85s.35,2.14,1.05,2.89c.7.75,1.6,1.12,2.71,1.12.54,0,1.18-.14,1.92-.41l.13-.04v-2.16h-1.8v-1.32Z"/>
        <path class="cls-2" d="M182.9,74.74h1.34v10.38h-1.34v-10.38Z"/>
        <path class="cls-2" d="M195.75,85.77l-1.35,1.45c-.42-.03-.86-.11-1.32-.25-.46-.14-.92-.34-1.39-.58-.47-.25-1.1-.67-1.88-1.27-1.14-.23-2.08-.83-2.82-1.8-.74-.97-1.11-2.09-1.11-3.36,0-1.55.48-2.83,1.43-3.85.95-1.02,2.15-1.52,3.61-1.52s2.65.5,3.61,1.51c.96,1.01,1.44,2.28,1.44,3.8,0,1.28-.36,2.41-1.08,3.38-.72.97-1.66,1.58-2.81,1.84l.35.15c1.1.47,1.9.71,2.38.71.27,0,.58-.07.94-.2ZM190.93,76c-1.05,0-1.92.38-2.61,1.13-.69.75-1.03,1.7-1.03,2.85s.35,2.04,1.04,2.78c.69.74,1.56,1.11,2.6,1.11s1.9-.38,2.6-1.14c.7-.76,1.06-1.69,1.06-2.8s-.35-2.07-1.04-2.82c-.69-.74-1.57-1.11-2.62-1.11Z"/>
        <path class="cls-2" d="M204.13,74.74h1.35v5.89c0,.8-.05,1.4-.16,1.81-.1.41-.23.74-.39,1.02-.15.27-.34.51-.57.72-.74.71-1.71,1.06-2.91,1.06s-2.2-.35-2.93-1.06c-.22-.22-.41-.46-.57-.73-.15-.27-.28-.6-.38-.99-.1-.39-.15-1.01-.15-1.84v-5.88h1.35v5.89c0,.98.1,1.66.3,2.04.2.38.51.69.92.92.41.23.9.35,1.45.35.79,0,1.44-.23,1.94-.69.26-.25.45-.54.57-.88.12-.34.17-.91.17-1.73v-5.89Z"/>
        <path class="cls-2" d="M207.33,74.74h5.31v1.32h-3.97v3.17h3.83v1.33h-3.83v3.23h4.09v1.32h-5.43v-10.37Z"/>
      </g>
      <rect class="cls-1" x="90.12" width="34.03" height="43.57"/>
    </g>
  </g>
</svg>