<?xml version="1.0" encoding="UTF-8"?>
<svg id="Layer_2" xmlns="http://www.w3.org/2000/svg" viewBox="0 0 332.97 88.53">
  <defs>
    <style>
      .cls-1 {
        fill: #231f20;
        fill-rule: evenodd;
      }
    </style>
  </defs>
  <g id="Layer_1-2" data-name="Layer_1">
    <path class="cls-1" d="M235.65,56.7h-8.38l24.57-48.3h9.65l24.57,48.3h-8.47l-6.46-12.71h-29.03l-6.46,12.71h0ZM268.1,38.01l-11.47-22.54-11.47,22.54h22.94ZM197.32,7.14l5.73-6.61h12.73l-18.46,6.61h0ZM180.96,56.8h43.2v-5.49h-35.75v-16.68h26.54v-5.67h-26.54v-15.14h35.52v-5.37h-42.97v48.35h0ZM122.26,8.4h31.82c8.49,0,15.43,6.31,15.43,14.01h0c0,6.72-5.28,12.37-12.25,13.71l14.94,20.58h-8.77l-14.72-20.28h-19.74v20.28h-6.72V8.4h0ZM154.45,14.15l.45.06.43.08.43.11.42.13.41.15.39.17.38.19.37.21.36.22.35.24.33.26.32.27.3.28.29.29.27.3.25.32.24.32.22.33.2.34.18.34.17.35.15.35.13.35.11.36.1.36.08.37.06.37.04.38.03.38v.39s0,.39,0,.39l-.03.38-.04.38-.06.37-.08.37-.1.36-.11.36-.13.35-.15.35-.17.35-.18.34-.2.34-.22.33-.24.32-.25.32-.27.3-.29.29-.3.28-.32.27-.33.26-.35.24-.36.22-.37.21-.38.19-.39.17-.41.15-.42.13-.43.11-.43.08-.45.06-.45.04h-.52s-24.13.01-24.13.01V14.09h24.65s.45.05.45.05h0ZM80.94,5.57c-13.64,0-24.7,11.06-24.7,24.7s11.06,24.7,24.7,24.7,24.7-11.06,24.7-24.7-11.06-24.7-24.7-24.7h0ZM80.94,0c-18.16,0-32.89,13.55-32.89,30.26s14.73,30.26,32.89,30.26,32.89-13.55,32.89-30.26S99.1,0,80.94,0h0ZM0,56.8V8.45h6.17v43.06h36.54v5.29H0ZM289.64,56.8h43.33v-5.5h-36.54V8.45h-6.79v48.35h0ZM134.1,88.21h-3.68l10.8-18.8h4.24l10.8,18.8h-3.72l-2.84-4.94h-12.75l-2.84,4.94h0ZM148.35,80.94l-5.04-8.77-5.04,8.77h10.08ZM163.24,69.41h13.37c3.57,0,6.49,2.45,6.49,5.45h0c0,2.61-2.22,4.81-5.15,5.33l6.28,8.01h-3.68l-6.19-7.89h-7.58v7.89h-3.54v-18.8h0ZM176.77,71.65l.19.02.18.03.18.04.18.05.17.06.17.07.16.07.16.08.15.09.15.09.14.1.13.1.13.11.12.11.11.12.11.12.1.13.09.13.08.13.08.13.07.14.06.14.05.14.05.14.04.14.03.14.03.14.02.15v.15s.02.15.02.15v.15s-.02.15-.02.15l-.02.15-.03.14-.03.14-.04.14-.05.14-.05.14-.06.14-.07.14-.08.13-.08.13-.09.13-.1.13-.11.12-.11.12-.12.11-.13.11-.13.1-.14.1-.15.09-.15.09-.16.08-.16.07-.17.07-.17.06-.18.05-.18.04-.18.03-.19.02h-.19s-.22.02-.22.02h-9.43v-6.47h9.65s.19.02.19.02h0ZM109.13,69.41h13.37c3.57,0,6.49,2.45,6.49,5.45h0c0,1.88-1.15,3.54-2.88,4.52-1.19.67-2.37.86-3.73.91-.69.03-1.41.03-2.13.02h-7.58v7.89h-3.54v-18.8h0ZM122.66,71.65l.19.02.18.03.18.04.18.05.17.06.17.07.16.07.16.08.15.09.15.09.14.1.13.1.13.11.12.11.11.12.11.12.1.13.09.13.08.13.08.13.07.14.06.14.05.14.05.14.04.14.03.14.03.14.02.15v.15s.02.15.02.15v.15s-.02.15-.02.15l-.02.15-.03.14-.03.14-.04.14-.05.14-.05.14-.06.14-.07.14-.08.13-.08.13-.09.13-.1.13-.11.12-.11.12-.12.11-.13.11-.13.1-.14.1-.15.09-.15.09-.16.08-.16.07-.17.07-.17.06-.18.05-.18.04-.18.03-.19.02h-.19s-.22.02-.22.02h-9.43v-6.47h9.65s.19.02.19.02h0ZM204.45,82.17l3.25-.21c.15.94.51,1.71,1.07,2.31.56.6,1.44,1.09,2.62,1.46,1.18.37,2.51.56,3.99.56,1.31,0,2.47-.14,3.48-.42,1.01-.28,1.76-.67,2.25-1.16.49-.49.74-1.03.74-1.61s-.24-1.1-.71-1.54c-.47-.44-1.25-.81-2.34-1.11-.7-.2-2.24-.5-4.63-.92-2.39-.42-4.06-.81-5.02-1.17-1.24-.47-2.17-1.05-2.78-1.75-.61-.7-.91-1.47-.91-2.34,0-.95.37-1.83,1.11-2.66.75-.83,1.84-1.45,3.26-1.88,1.44-.42,3.02-.64,4.77-.64,1.93,0,3.63.22,5.11.67,1.47.45,2.6,1.11,3.4,1.98.79.87,1.22,1.86,1.28,2.96l-3.3.18c-.18-1.19-.78-2.09-1.8-2.69-1.02-.61-2.53-.91-4.53-.91s-3.6.28-4.55.83c-.95.55-1.43,1.22-1.43,1.99,0,.68.34,1.23,1.01,1.67.67.44,2.39.88,5.19,1.34,2.8.46,4.72.86,5.76,1.2,1.51.51,2.63,1.15,3.36,1.92.72.77,1.08,1.67,1.08,2.67s-.39,1.94-1.19,2.83c-.79.88-1.93,1.57-3.42,2.07-1.48.49-3.16.74-5.01.74-2.36,0-4.33-.24-5.92-.74-1.59-.49-2.84-1.24-3.75-2.24-.9-.99-1.38-2.12-1.42-3.38h0ZM192.83,88.21v-13.28h3.47v13.28h-3.47ZM192.83,72.93v-3.52h3.47v3.52h-3.47ZM30.12,25.39h5.69l8.54-16.59h-7.25l-6.99,16.59h0Z"/>
  </g>
</svg>