<?xml version="1.0" encoding="UTF-8"?>
<svg id="Layer_2" xmlns="http://www.w3.org/2000/svg" viewBox="0 0 235.36 72.34">
  <defs>
    <style>
      .cls-1 {
        fill-rule: evenodd;
      }
    </style>
  </defs>
  <g id="Layer_1-2" data-name="Layer_1">
    <path class="cls-1" d="M0,1.61h9.33l17.68,39.55L44.05,1.61h8.04l-22.83,49.52h-5.79L0,1.61ZM60.45,51.13h8.04V1.61h-8.04v49.52ZM177.49,51.44h-8.04v-22.51h-28.3v22.51h-8.36V1.93h8.36v20.9h28.3V1.93h8.04v49.51h0ZM184.24,1.29h9.97l16.72,23.47,15.76-23.15h8.68l-20.26,29.58v19.94h-8.68v-19.94L184.24,1.29h0ZM124.11,8.04V1.93c-4.82-1.29-10.29-1.93-14.47-1.93-13.18,0-26.05,5.47-31.51,17.68-3.22,6.43-1.93,16.08,2.25,22.19,10.61,13.5,29.9,13.83,45.34,9.64v-5.79q-.64,0-.97.32c-11.25,3.86-24.11,5.79-35.05-5.79-4.18-5.14-5.47-12.54-3.54-18.97,3.54-9.65,12.22-14.79,22.83-13.83,0,0,7.4-.32,15.11,2.57h0ZM24.12,71.38h2.57v.96h-3.86v-9.97h1.29v9ZM43.09,68.49h-3.22l1.61-4.18,1.61,4.18ZM43.73,69.45l.96,2.89h1.29l-4.5-10.61-4.5,10.61h1.29l.96-2.89h4.5ZM58.2,67.52h.96c1.29,0,2.57.32,2.57,1.93s-1.29,1.93-2.25,1.93h-1.29v-3.86h0,0ZM57.23,72.34h2.25c1.93,0,3.54-.96,3.54-2.89,0-1.29-.64-2.25-1.93-2.57.64-.32.96-.97.96-1.93,0-1.93-1.61-2.57-3.22-2.57h-1.61v9.97h0ZM58.2,63.34h.32c1.61,0,2.57,0,2.57,1.61s-1.29,1.61-2.57,1.61h-.32v-3.22ZM79.42,63.02c2.25,0,3.86,1.93,3.86,4.18s-1.61,4.18-3.86,4.18-4.18-1.93-4.18-4.18,1.61-4.18,4.18-4.18ZM79.42,62.06c-2.89,0-5.47,2.25-5.47,5.15s2.57,5.14,5.47,5.14c2.57,0,5.15-2.25,5.15-5.14s-2.57-5.15-5.15-5.15ZM95.82,63.34h.32c1.29,0,2.57,0,2.57,1.93,0,1.29-1.29,1.61-2.57,1.61h-.32v-3.54ZM95.82,67.84h.32l2.89,4.5h1.29l-3.22-4.5c1.61-.32,2.57-1.28,2.57-2.89,0-2.25-1.61-2.57-3.54-2.57h-1.61v9.97h1.29v-4.5h0,0ZM116.07,68.49h-3.54l1.93-4.18,1.61,4.18ZM116.39,69.45l1.29,2.89h1.29l-4.5-10.61-4.82,10.61h1.29l1.29-2.89h4.18,0ZM130.86,72.34h-1.29v-9h-2.25v-.96h5.79v.96h-2.25v9h0ZM147.26,63.02c2.25,0,4.18,1.93,4.18,4.18s-1.93,4.18-4.18,4.18-3.86-1.93-3.86-4.18c0-2.25,1.61-4.18,3.86-4.18ZM147.26,62.06c-2.89,0-5.15,2.25-5.15,5.15s2.25,5.14,5.15,5.14,5.46-2.25,5.46-5.14c0-2.89-2.57-5.15-5.46-5.15h0ZM163.66,62.38h1.29v9.97h-1.29v-9.97ZM178.13,63.34h.32c1.61,0,2.57,0,2.57,1.93,0,1.29-1.29,1.61-2.25,1.61h-.64v-3.54ZM178.13,67.84h.32l3.21,4.5h1.29l-3.22-4.5c1.61-.32,2.57-1.28,2.57-2.89,0-2.25-1.93-2.57-3.86-2.57h-1.29v9.97h.97v-4.5h0,0ZM193.88,62.38h5.47v.96h-4.18v2.89h3.86v.97h-3.86v4.18h4.18v.96h-5.47v-9.97ZM214.14,64.31c-.64-.64-.96-1.29-1.93-1.29s-1.61.64-1.61,1.61.96,1.28,1.61,1.61l.64.32c1.28.64,2.25,1.28,2.25,2.89s-1.29,2.89-2.89,2.89-2.89-.96-3.22-2.57l.97-.32c.32,1.28.96,1.93,2.25,1.93.97,0,1.93-.64,1.93-1.93s-.96-1.61-1.93-1.93l-.64-.32c-.96-.64-1.93-.97-1.93-2.57s1.28-2.57,2.57-2.57,2.25.64,2.57,1.61l-.64.64h0Z"/>
  </g>
</svg>