<?xml version="1.0" encoding="UTF-8"?>
<svg id="Layer_2" xmlns="http://www.w3.org/2000/svg" viewBox="0 0 120.38 97.06">
  <defs>
    <style>
      .cls-1 {
        fill: #231f20;
      }
    </style>
  </defs>
  <g id="Layer_1-2" data-name="Layer_1">
    <path class="cls-1" d="M63.73,3.86l-12.62,22.9c-1.17,2.12-3.09,5.6-4.26,7.73l-12.62,22.9c-1.17,2.12-3.09,2.12-4.26,0l-12.62-22.9c-1.17-2.12-3.09-5.6-4.26-7.73L.5,3.86C-.67,1.74.29,0,2.63,0h58.98c2.34,0,3.3,1.74,2.13,3.86ZM115.8,0h-44.37c-2.52,0-4.59,2.06-4.59,4.59v29.04c0,14.78,11.99,26.77,26.77,26.77s26.77-11.99,26.77-26.77V4.59c0-2.52-2.06-4.59-4.59-4.59Z"/>
    <g>
      <path class="cls-1" d="M18.25,91.31h1.38l1.48,3.99,1.48-3.99h1.34l-2.29,5.71h-1.1l-2.29-5.71Z"/>
      <path class="cls-1" d="M27.12,91.31h1.25v5.66h-1.25v-5.66Z"/>
      <path class="cls-1" d="M31.66,96.15l.74-.88c.51.42,1.04.69,1.69.69.51,0,.82-.2.82-.53v-.02c0-.32-.19-.48-1.14-.72-1.14-.29-1.88-.61-1.88-1.73v-.02c0-1.03.83-1.71,1.98-1.71.83,0,1.53.26,2.1.72l-.65.94c-.5-.35-1-.56-1.47-.56s-.73.22-.73.49v.02c0,.37.24.49,1.22.74,1.15.3,1.8.71,1.8,1.7v.02c0,1.12-.86,1.76-2.08,1.76-.86,0-1.72-.3-2.4-.91Z"/>
      <path class="cls-1" d="M40.69,92.46h-1.72v-1.15h4.69v1.15h-1.72v4.52h-1.25v-4.52Z"/>
      <path class="cls-1" d="M48.1,91.27h1.15l2.43,5.71h-1.3l-.52-1.27h-2.4l-.52,1.27h-1.27l2.43-5.71ZM49.41,94.6l-.75-1.84-.75,1.84h1.51Z"/>
      <path class="cls-1" d="M59.42,94.55v-3.24h1.25v3.2c0,.92.46,1.4,1.22,1.4s1.22-.46,1.22-1.36v-3.25h1.25v3.2c0,1.72-.96,2.56-2.48,2.56s-2.45-.85-2.45-2.52Z"/>
      <path class="cls-1" d="M67.89,91.31h2.59c.72,0,1.28.2,1.65.57.32.32.49.76.49,1.29v.02c0,.91-.49,1.49-1.21,1.76l1.38,2.02h-1.46l-1.21-1.81h-.98v1.81h-1.25v-5.66ZM70.4,94.06c.61,0,.95-.32.95-.8v-.02c0-.53-.37-.81-.98-.81h-1.24v1.63h1.26Z"/>
      <path class="cls-1" d="M76.01,91.31h2.63c.65,0,1.16.18,1.48.5.26.26.39.57.39.96v.02c0,.64-.34,1-.74,1.22.66.25,1.06.63,1.06,1.39v.02c0,1.04-.84,1.55-2.12,1.55h-2.69v-5.66ZM78.37,93.6c.55,0,.9-.18.9-.6v-.02c0-.37-.29-.58-.82-.58h-1.23v1.2h1.15ZM78.7,95.88c.55,0,.88-.19.88-.62v-.02c0-.38-.28-.62-.92-.62h-1.44v1.25h1.48Z"/>
      <path class="cls-1" d="M86.06,91.27h1.15l2.43,5.71h-1.3l-.52-1.27h-2.4l-.52,1.27h-1.27l2.43-5.71ZM87.37,94.6l-.75-1.84-.75,1.84h1.51Z"/>
      <path class="cls-1" d="M92.78,91.31h1.15l2.65,3.49v-3.49h1.23v5.66h-1.06l-2.74-3.6v3.6h-1.23v-5.66Z"/>
      <path class="cls-1" d="M103.38,91.27h1.15l2.43,5.71h-1.3l-.52-1.27h-2.4l-.52,1.27h-1.27l2.43-5.71ZM104.69,94.6l-.75-1.84-.75,1.84h1.51Z"/>
    </g>
  </g>
</svg>